<!--

    Copyright (C) 2015 Red Hat, Inc.

    Licensed under the Apache License, Version 2.0 (the "License");
    you may not use this file except in compliance with the License.
    You may obtain a copy of the License at

            http://www.apache.org/licenses/LICENSE-2.0

    Unless required by applicable law or agreed to in writing, software
    distributed under the License is distributed on an "AS IS" BASIS,
    WITHOUT WARRANTIES OR CONDITIONS OF ANY KIND, either express or implied.
    See the License for the specific language governing permissions and
    limitations under the License.

-->
<?xml version="1.0" ?><!DOCTYPE svg  PUBLIC '-//W3C//DTD SVG 1.1//EN'  'http://www.w3.org/Graphics/SVG/1.1/DTD/svg11.dtd'><svg enable-background="new 0 0 512 512" height="512px" id="Layer_1" version="1.1" viewBox="0 0 512 512" width="512px" xml:space="preserve" xmlns="http://www.w3.org/2000/svg" xmlns:xlink="http://www.w3.org/1999/xlink"><path d="M446.411,388.863v-16.721c0,0,13.936,0,14.245-3.098c0.309-3.095,4.644-17.648,2.476-21.674  c-1.547-6.502-26.009-16.72-26.009-16.72l-4.335-16.721c0,0,10.838-8.979,8.979-12.694c-1.857-3.716-12.366-19.991-14.553-23.534  c-2.187-3.539-20.702,1.995-20.702,1.995l-10.262-13.243c0,0,8.36-17.547,4.336-20.645c-4.026-3.095-17.751-13.177-20.848-15.48  s-20.332,10.92-20.332,10.92l-11.044-9.062c0,0,2.991-19.507-1.654-21.259c-4.645-1.756-16.091-5.187-20.533-6.618  c-3.313-1.069-18.805,11.676-21.569,10.785c-1.952-0.629-3.986,2.768-5.655,6.775l-0.336-0.008c0,0-8.259-19.71-11.559-18.984  c-3.306,0.72-17.176,4.369-19.991,5.083c-0.903,0.23-18.755,10.071-21.571,10.786c-1.29,0.328-1.015,5.136-0.338,10.25  c-3.458-2.503-6.699-4.325-7.642-3.207c-2.273,2.679-20.504,9.52-21.571,10.785c-2.273,2.68-8.051,9.443-11.814,12.897  c-3.764,3.456,7.48,15.173,7.48,15.173l-2.483,9.937c-2.927,0.149-5.313,0.728-5.468,2.19c-0.119,1.127-21.154,6.867-21.571,10.787  c-0.415,3.918,0,15.897,0,19.196c0,3.301,16.924,8.67,16.924,8.67l0.832,25.595c0,0-16.44,2.322-15.201,5.582  c1.238,3.261,2.603,19.758,2.709,22.7c0.106,2.94,20.542,8.467,20.542,8.467l5.366,20.436c0,0-11.355,11.351-9.498,15.065  c1.858,3.716,13.625,19.816,13.625,19.816l17.34-3.096l11.146,13.006c0,0-2.579,19.091-0.204,21.466  c2.371,2.375,12.385,8.181,17.747,12.385c2.578,2.019,16.517-7.842,16.517-7.842l17.34,8.258c0,0-0.727,22.192,3.3,22.295  c4.024,0.101,16.662,1.112,21.06,2.477c2.826,0.876,18.486-11.742,21.57-10.785c1.753,0.542,3.204-2.324,4.318-5.97l0.688,0.073  c0,0,4.799,18.743,7.275,18.332c2.478-0.412,14.451,0,17.96,0c1.8,0,18.063-10.785,21.57-10.785c1.918,0,2.848-6.256,3.298-11.926  c3.582,2.025,7.219,3.463,8.949,2.266c4.026-2.788,20.208-9.843,21.57-10.786c4.026-2.786,10.843-8.65,14.796-11.756  c3.952-3.106-14.554-19.198-14.554-19.198l1.658-4.486c2.519-0.382,4.433-0.905,4.929-1.623c0.946-1.372,20.273-8.917,21.561-10.784  c1.829-2.652,4.316-12.537,5.912-17.166C464.729,402.811,446.411,388.863,446.411,388.863z M296.898,303.257  c34.996,0.407,90.633,52.731,52.245,102.197C310.996,407.237,257.724,348.754,296.898,303.257z" fill="#3373BA"/><linearGradient gradientUnits="userSpaceOnUse" id="SVGID_1_" x1="205.8281" x2="438.2344" y1="325.6074" y2="325.6074"><stop offset="0" style="stop-color:#5AB2E4"/><stop offset="1" style="stop-color:#95CEF0"/></linearGradient><path d="M436.051,422.566c0.554-1.852,1.08-3.614,1.556-5.043c-1.031-2.489-7.823-9.165-15.106-14.714  l-1.5-1.193v-22.659l3.906-0.003c4.063-0.003,8.568-0.479,10.5-1.059c0.172-0.892,0.401-1.989,0.694-3.303  c0.686-3.068,2.761-12.387,1.947-14.594l-0.227-0.417l-0.113-0.465c-1.045-2.631-12.094-9.168-23.688-14.015l-1.818-0.762  l-5.464-21.072l1.945-1.611c3.516-2.914,6.959-6.739,7.652-8.441c-1.768-3.231-7.458-12.193-10.947-17.69  c-1.091-1.72-2.022-3.186-2.653-4.193c-0.235-0.028-0.579-0.054-1.062-0.054c-4.52,0-12.79,2.173-15.595,3.01l-2.609,0.78  l-13.428-17.328l1.051-2.207c3.051-6.413,5.353-13.837,5.047-16.135c-3.209-2.447-10.749-8.01-15.821-11.754  c-1.271-0.939-2.394-1.768-3.264-2.409c-2.012,1.459-5.896,5.778-9.082,10.182l-2.08,2.874l-23.443-13.205l0.416-2.716  c1.089-7.096,1.195-14.958,0.279-17.159c-3.386-1.23-9.729-3.202-14.435-4.665c-1.502-0.466-2.878-0.894-4.013-1.252  c-1.561,2.157-3.986,8.529-5.555,14.768l-0.775,3.081l-23.993-0.585l-0.995-2.374c-2.975-7.095-6.596-14.02-8.47-16.307  c-3.398,0.821-10.214,2.591-14.542,3.715c-0.666,0.173-1.282,0.333-1.828,0.474c-0.02,3.535,1.233,11.819,2.668,18.647l0.638,3.039  l-18.85,9.131l-1.99-1.827c-4.988-4.584-10.626-8.945-13.328-10.387c-4.355,5.081-7.804,8.835-10.279,11.189  c0.493,1.942,3.65,6.46,7.077,10.039l1.521,1.584l-3.913,15.651l-6.255,5.864c5.518,6.49,11.154,12.913,16.965,19.452  c5.109,5.677,9.083,11.92,14.191,17.029c6.955,6.365,14.133,12.262,21.495,17.809c2.299-12.399,9.014-24.039,19.991-34.205  l0.116-0.109l0.126-0.098c4.717-3.714,10.696-5.598,17.773-5.598c23.565,0,52.208,20.522,63.85,45.747  c8.314,18.014,7.526,36.662-1.988,53.712c22.701,12.155,45.452,23.248,68.584,34.603c2.604-0.222,4.69-0.511,5.76-0.861  C433.642,430.525,435.125,425.663,436.051,422.566z" fill="url(#SVGID_1_)"/><path d="M349.836,410.895l-0.136,0.16l-0.154,0.02c-6.253,5.923-14.442,8.926-23.688,8.926c-0.001,0-0.003,0-0.004,0  c-24.645,0-53.297-21.829-63.872-48.809c-4.285-10.935-5.412-21.682-3.503-31.969c-7.361-5.547-14.54-11.41-21.495-17.775  c-5.109-5.11-9.083-11.338-14.191-17.015c-5.811-6.538-11.447-12.953-16.965-19.444l-5.636,5.289l-1.898-0.278  c-0.048-0.008-4.794-0.701-8.983-0.701c-1.654,0-2.717,0.11-3.374,0.22c-0.134,3.324-0.017,9.228,0.057,12.989  c0.025,1.23,0.046,2.29,0.057,3.131c1.941,1.442,8.136,4.089,14.162,6.002l2.678,0.85l1.04,31.966l-3.532,0.5  c-4.448,0.629-9.134,1.729-11.414,2.624c1.101,5.419,1.984,16.104,2.254,20.163c2.652,1.568,10.831,4.337,17.69,6.192l2.223,0.601  l6.528,24.868l-1.612,1.612c-4.011,4.016-7.848,9.035-8.463,11.012c1.648,2.864,7.335,10.92,11.53,16.713l17.128-3.059  l13.785,16.083l-0.238,1.765c-0.962,7.118-1.537,15.935-0.948,18.47c1.299,1.087,4.406,3.121,7.182,4.94  c3.125,2.047,6.343,4.155,8.915,6.087c2.255-0.66,7.803-3.816,12.678-7.265l1.902-1.343l21.789,10.378l-0.086,2.599  c-0.245,7.482,0.255,15.336,1.099,18.262c4.436,0.23,13.601,0.984,18.754,2.138c1.215-2.483,2.737-8.88,3.507-15.037l0.484-3.874  l26.286,2.813l0.685,2.672c1.459,5.695,3.606,12.474,4.952,15.214c0.82-0.033,1.925-0.054,3.452-0.054  c2.683,0,5.934,0.063,8.545,0.115c0.949,0.019,1.832,0.035,2.596,0.048c0.816-2.91,1.513-10.107,1.583-16.978l0.021-2.051  l15.885-11.039l2.315,1.848c4.815,3.848,11.436,7.955,13.996,8.212c2.511-1.785,6.112-4.749,9.311-7.373  c1.239-1.019,2.433-2.01,3.507-2.876c-1.625-2.846-7.309-8.967-13.324-14.201l-2.071-1.785L409.998,434h2.768  c4.73,0,10.085-0.249,14.166-0.598c-23.132-11.354-45.883-22.479-68.584-34.635C356.026,402.926,353.192,406.959,349.836,410.895z" fill="#3D7BBE"/><linearGradient gradientUnits="userSpaceOnUse" id="SVGID_2_" x1="315.2754" x2="297.1107" y1="357.7617" y2="375.9264"><stop offset="0" style="stop-color:#FFFFFF"/><stop offset="1" style="stop-color:#69ADDF"/></linearGradient><path d="M263.175,222.4c1.813,3.009,4.433,8.297,6.54,13.319l1.988,4.747l5.146,0.126l18.244,0.445  l6.35,0.151l1.552-6.157c0.984-3.91,2.444-8.213,3.655-10.965c0.287,0.089,0.581,0.18,0.879,0.274  c3.811,1.184,8.705,2.705,12.162,3.874c0.277,2.988-0.009,8.659-0.754,13.553l-0.832,5.431l4.787,2.697l17.96,10.116l6.18,3.478  l4.159-5.744c1.926-2.66,4.302-5.495,6.123-7.379c0.213,0.155,0.43,0.315,0.651,0.48c4.294,3.169,10.362,7.647,14.042,10.41  c-0.544,2.869-2.409,8.16-4.502,12.564l-2.104,4.418l2.996,3.869l10.262,13.241l3.338,4.307l5.221-1.561  c3.323-0.993,9.504-2.514,13.321-2.797c0.445,0.703,0.948,1.495,1.493,2.354c2.521,3.972,7.188,11.325,9.641,15.435  c-1.289,1.591-3.507,3.83-5.526,5.51l-3.891,3.222l1.269,4.892l4.335,16.721l0.989,3.817l3.64,1.521  c0.049,0.02,4.915,2.06,10.293,4.835c7.889,4.078,10.514,6.434,11.243,7.208l0.046,0.197l0.153,0.282  c0.175,2.62-1.463,9.95-2.019,12.435c-0.062,0.274-0.12,0.547-0.176,0.798c-1.987,0.27-4.759,0.476-7.189,0.476H417v7.927v16.722  v3.938l3.08,2.386c5.418,4.125,11.074,9.373,13.2,12.118c-0.324,1.045-0.675,2.175-1.024,3.34c-0.623,2.087-1.644,4.93-2.446,7.152  c-3.489,0.543-10.53,0.418-17.044,0.418h-5.535l-1.919,5.74l-5.264,14.518l-1.9,5.284l4.139,3.672  c4.025,3.504,8.087,7.629,10.505,10.51c-0.198,0.165-0.398,0.346-0.601,0.512c-2.526,2.074-5.309,4.365-7.545,6.065  c-2.534-1.105-7.099-4.012-10.758-6.931l-4.631-3.702l-4.868,3.385l-11.766,8.178l-3.371,2.341l-0.04,4.105  c-0.046,4.568-0.409,9.634-0.877,12.98c-2.484-0.048-5.405-0.102-7.874-0.102c-0.289,0-0.564,0.001-0.826,0.002  c-1.12-2.983-2.587-7.721-3.729-12.175l-1.368-5.344l-5.484-0.587l-19.662-2.104l-7.76-0.827l-0.972,7.743  c-0.484,3.856-1.347,8.129-2.164,11.006c-4.15-0.66-9.095-1.119-12.813-1.385c-0.428-3.494-0.637-9.148-0.469-14.359l0.171-5.199  l-4.696-2.236l-17.339-8.258l-4.206-2.003l-3.802,2.69c-3.353,2.372-7.367,4.793-9.836,5.99c-2.269-1.608-4.806-3.271-7.284-4.895  c-1.813-1.188-4.1-2.687-5.593-3.747c-0.145-3.135,0.306-9.775,1.119-15.808l0.477-3.53l-2.318-2.704l-11.147-13.006l-2.957-3.45  l-4.474,0.799l-12.433,2.221c-3.455-4.807-6.87-9.689-8.725-12.538c1.353-2.093,4.087-5.4,6.706-8.023l3.227-3.227l-1.158-4.414  l-5.366-20.436l-1.169-4.451l-4.442-1.202c-5.686-1.538-11.729-3.557-14.938-4.935c-0.291-3.862-0.813-9.921-1.539-14.812  c2.17-0.548,4.946-1.105,7.462-1.464l7.063-0.997l-0.232-7.13l-0.833-25.593l-0.183-5.616l-5.356-1.7  c-4.206-1.335-8.87-3.194-11.429-4.502c-0.005-0.296-0.012-0.603-0.018-0.923c-0.047-2.42-0.12-6.081-0.118-9.151  c3.746,0.055,7.821,0.649,7.86,0.655l3.799,0.563l2.803-2.629l9.637-9.036l1.707-1.601l0.567-2.269l3.096-12.386l1.057-4.257  l-3.027-3.168c-1.92-2.009-3.949-4.606-5.13-6.479c1.758-1.808,3.821-4.065,6.219-6.809c2.72,1.937,6.528,5.041,9.879,8.117  l3.979,3.659l4.864-2.357l13.624-6.599l5.59-2.708l-1.278-6.079c-1.117-5.317-2.027-11.058-2.396-14.804  C255.82,224.28,260.007,223.198,263.175,222.4 M325.855,424.229c10.281,0,19.419-3.506,26.424-10.143l0.308-0.291l0.273-0.322  c18.176-21.316,22.113-46.217,11.084-70.114c-12.229-26.498-42.49-48.056-67.458-48.056c-7.878,0-14.874,2.229-20.232,6.447  l-0.25,0.197l-0.234,0.217c-21.366,19.792-27.575,44.867-17.484,70.609C269.596,401.629,299.276,424.229,325.855,424.229   M265.669,213.644c-0.063,0-0.124,0.006-0.184,0.019c-3.305,0.722-17.175,4.37-19.991,5.085s1.824,22.781,1.824,22.781l-13.624,6.6  c0,0-12.933-11.889-16.889-11.889c-0.373,0-0.666,0.105-0.862,0.336c-2.273,2.68-8.051,9.443-11.814,12.897  c-3.764,3.456,7.48,15.173,7.48,15.173l-3.097,12.387l-9.637,9.037c0,0-5.014-0.744-9.564-0.744c-3.67,0-7.039,0.484-7.224,2.234  c-0.415,3.918,0,15.897,0,19.196c0,3.301,16.924,8.67,16.924,8.67l0.832,25.595c0,0-16.44,2.322-15.201,5.582  c1.238,3.261,2.603,19.758,2.709,22.7c0.106,2.94,20.542,8.467,20.542,8.467l5.366,20.436c0,0-11.355,11.351-9.498,15.065  c1.858,3.716,13.625,19.816,13.625,19.816l17.34-3.096l11.146,13.006c0,0-2.579,19.091-0.204,21.466  c2.371,2.375,12.385,8.181,17.747,12.385c0.239,0.188,0.576,0.272,0.991,0.272c4.055,0,15.525-8.114,15.525-8.114l17.34,8.258  c0,0-0.727,22.192,3.3,22.295c4.024,0.101,16.662,1.112,21.06,2.477c0.145,0.046,0.286,0.066,0.427,0.066  c4.138,0,6.488-18.854,6.488-18.854l19.661,2.105c0,0,4.695,18.339,7.194,18.339c0.028,0,0.056-0.003,0.081-0.007  c0.827-0.137,2.707-0.183,4.979-0.183c4.541,0,10.642,0.183,12.981,0.183c3.507,0,3.716-20.931,3.716-20.931l11.766-8.176  c0,0,11.374,9.098,16.694,9.098c0.646,0,1.205-0.136,1.642-0.437c4.025-2.788,10.843-8.651,14.796-11.757  c3.952-3.107-14.554-19.198-14.554-19.198l5.264-14.242c0,0,21.056,0,22.884-2.652c1.829-2.651,4.396-12.535,5.991-17.166  c1.596-4.629-16.641-18.577-16.641-18.577v-16.722c0,0,13.855,0,14.164-3.095c0.311-3.098,4.605-17.65,2.438-21.675  c-1.548-6.504-26.029-16.722-26.029-16.722l-4.344-16.72c0,0,10.832-8.979,8.974-12.694c-1.858-3.717-12.37-19.991-14.554-23.533  c-0.531-0.858-2.022-1.184-3.975-1.184c-6.104,0-16.73,3.177-16.73,3.177l-10.263-13.241c0,0,8.36-17.547,4.335-20.645  c-4.025-3.097-17.751-13.179-20.848-15.481c-0.23-0.172-0.502-0.251-0.807-0.251c-3.772,0-12.609,12.225-12.609,12.225  l-17.959-10.115c0,0,2.99-19.508-1.654-21.26c-4.644-1.756-16.091-5.185-20.532-6.617c-0.158-0.051-0.317-0.075-0.477-0.075  c-4.305,0-8.843,18.073-8.843,18.073l-18.243-0.445C277.044,232.648,269.081,213.644,265.669,213.644L265.669,213.644z   M325.855,416.282c-39.73,0-93.81-62.781-44.686-108.286c4.132-3.253,9.419-4.746,15.316-4.746  c35.642,0,93.367,54.589,50.327,105.067C340.99,413.834,333.705,416.282,325.855,416.282L325.855,416.282z" fill="url(#SVGID_2_)"/><path d="M257.844,156.297V143.03c0,0,11.056,0,11.301-2.458c0.245-2.456,3.685-14.003,1.965-17.196  c-1.228-5.16-20.636-13.267-20.636-13.267l-3.439-13.266c0,0,8.599-7.125,7.124-10.073c-1.474-2.949-9.812-15.862-11.547-18.673  c-1.735-2.808-16.426,1.583-16.426,1.583l-8.142-10.507c0,0,6.634-13.923,3.44-16.379c-3.194-2.458-14.084-10.456-16.541-12.284  c-2.457-1.827-16.132,8.665-16.132,8.665l-8.763-7.19c0,0,2.373-15.478-1.312-16.868c-3.686-1.394-12.768-4.115-16.292-5.251  c-2.628-0.848-14.921,9.266-17.114,8.557c-1.549-0.5-3.163,2.198-4.487,5.376l-0.267-0.006c0,0-6.554-15.639-9.172-15.063  c-2.622,0.571-13.627,3.466-15.861,4.033c-0.717,0.183-14.881,7.99-17.115,8.559c-1.023,0.261-0.805,4.075-0.269,8.132  c-2.743-1.986-5.314-3.431-6.063-2.544c-1.803,2.126-16.27,7.554-17.115,8.557c-1.804,2.127-6.388,7.493-9.375,10.234  c-2.986,2.743,5.936,12.04,5.936,12.04l-1.97,7.883c-2.323,0.119-4.216,0.576-4.338,1.738c-0.094,0.895-16.785,5.45-17.115,8.559  c-0.329,3.109,0,12.613,0,15.232c0,2.618,13.428,6.879,13.428,6.879l0.66,20.308c0,0-13.043,1.842-12.061,4.429  c0.982,2.587,2.065,15.676,2.149,18.011c0.084,2.333,16.298,6.718,16.298,6.718l4.258,16.214c0,0-9.009,9.006-7.535,11.953  c1.474,2.949,10.809,15.724,10.809,15.724l13.758-2.457l8.845,10.32c0,0-2.046,15.146-0.162,17.031  c1.881,1.885,9.827,6.492,14.082,9.828c2.045,1.602,13.104-6.223,13.104-6.223l13.758,6.553c0,0-0.576,17.609,2.618,17.689  c3.194,0.08,13.22,0.883,16.709,1.965c2.242,0.696,14.667-9.317,17.114-8.558c1.391,0.43,2.542-1.844,3.426-4.736l0.546,0.057  c0,0,3.807,14.872,5.772,14.545c1.966-0.326,11.467,0,14.25,0c1.428,0,14.333-8.558,17.115-8.558c1.521,0,2.259-4.964,2.617-9.462  c2.842,1.606,5.727,2.748,7.101,1.797c3.194-2.212,16.034-7.809,17.115-8.558c3.195-2.211,8.603-6.864,11.74-9.329  c3.137-2.464-11.547-15.232-11.547-15.232l1.316-3.559c1.998-0.303,3.517-0.718,3.91-1.289c0.751-1.087,16.086-7.076,17.108-8.557  c1.451-2.104,3.425-9.946,4.69-13.62C272.376,167.363,257.844,156.297,257.844,156.297z M139.213,88.373  c27.767,0.324,71.911,41.839,41.453,81.088C150.399,170.876,108.13,124.473,139.213,88.373z" fill="#D87E27"/><linearGradient gradientUnits="userSpaceOnUse" id="SVGID_3_" x1="66.9536" x2="251.3091" y1="106.1074" y2="106.1074"><stop offset="0.4545" style="stop-color:#FEDD69"/><stop offset="1" style="stop-color:#FFF5A8"/></linearGradient><path d="M249.623,183.04c0.439-1.47,0.857-2.868,1.233-4.002c-0.817-1.975-6.545-7.271-12.326-11.674  l-1.53-0.946v-17.979l3.439-0.003c3.224-0.002,6.97-0.38,8.501-0.841c0.137-0.708,0.404-1.578,0.637-2.62  c0.544-2.435,2.232-9.828,1.587-11.579l-0.158-0.331l-0.08-0.37c-0.829-2.087-9.59-7.273-18.788-11.119l-1.441-0.604l-4.333-16.72  l1.543-1.278c2.791-2.312,5.523-5.347,6.073-6.698c-1.403-2.564-5.917-9.675-8.687-14.037c-0.866-1.365-1.604-2.528-2.105-3.327  c-0.187-0.023-0.459-0.043-0.843-0.043c-3.585,0-10.147,1.724-12.373,2.388l-2.071,0.62l-10.653-13.75l0.833-1.75  c2.42-5.088,4.247-10.979,4.004-12.801c-2.546-1.942-8.529-6.356-12.553-9.327c-1.009-0.745-1.9-1.404-2.589-1.912  c-1.596,1.158-4.679,4.584-7.207,8.079l-1.649,2.279l-18.602-10.477l0.33-2.154c0.863-5.631,0.948-11.868,0.222-13.616  c-2.686-0.976-7.72-2.54-11.453-3.7c-1.192-0.369-2.284-0.709-3.185-0.994c-1.237,1.712-3.162,6.768-4.408,11.716l-0.615,2.446  l-19.036-0.465l-0.79-1.883c-2.36-5.629-5.234-11.124-6.721-12.938c-2.697,0.652-8.105,2.055-11.538,2.947  c-0.528,0.138-1.018,0.265-1.451,0.377c-0.016,2.805,0.979,9.377,2.116,14.794l0.507,2.411l-14.957,7.246l-1.579-1.45  c-3.958-3.637-8.431-7.098-10.575-8.241c-3.455,4.031-6.191,7.009-8.156,8.877c0.391,1.541,2.896,5.125,5.615,7.966l1.207,1.257  l-3.104,12.418l-4.963,4.653c4.379,5.15,8.851,10.247,13.461,15.434c4.053,4.503,7.207,9.457,11.26,13.512  c5.519,5.05,11.214,9.729,17.055,14.128c1.825-9.838,7.152-19.072,15.862-27.139l0.093-0.087l0.1-0.078  c3.742-2.948,8.487-4.44,14.102-4.44c18.698,0,41.424,16.282,50.661,36.295c6.596,14.293,5.971,29.091-1.578,42.617  c18.012,9.646,36.064,18.447,54.418,27.457c2.066-0.176,3.721-0.406,4.57-0.684C247.711,189.354,248.888,185.495,249.623,183.04z" fill="url(#SVGID_3_)"/><linearGradient gradientUnits="userSpaceOnUse" id="SVGID_4_" x1="51.123" x2="242.3872" y1="159.0557" y2="159.0557"><stop offset="0" style="stop-color:#F68C37"/><stop offset="0.4727" style="stop-color:#FEC046"/><stop offset="1" style="stop-color:#FFC639"/></linearGradient><path d="M181.216,173.778l-0.108,0.127l-0.122,0.013c-4.96,4.7-11.459,7.082-18.794,7.082  c-0.001,0-0.003,0-0.004,0c-19.553,0-42.288-17.319-50.678-38.726c-3.4-8.675-4.294-17.204-2.78-25.364  c-5.84-4.402-11.536-9.053-17.055-14.105c-4.053-4.054-7.207-8.994-11.26-13.5c-4.611-5.187-9.083-10.276-13.461-15.427  l-4.472,4.195l-1.506-0.22c-0.038-0.005-3.803-0.556-7.127-0.556c-1.312,0-2.156,0.087-2.676,0.175  c-0.107,2.637-0.013,7.32,0.045,10.305c0.02,0.976,0.036,1.818,0.045,2.484c1.541,1.145,6.456,3.243,11.236,4.762l2.125,0.675  l0.825,25.362l-2.802,0.396c-3.529,0.5-7.247,1.373-9.056,2.083c0.874,4.3,1.574,12.777,1.789,15.999  c2.104,1.245,8.593,3.44,14.037,4.914l1.763,0.475l5.179,19.732l-1.279,1.279c-3.183,3.187-6.227,7.169-6.715,8.737  c1.308,2.272,5.82,8.664,9.149,13.26l13.59-2.427l10.938,12.761l-0.188,1.399c-0.764,5.648-1.22,12.643-0.753,14.656  c1.031,0.862,3.497,2.476,5.699,3.919c2.479,1.625,5.033,3.298,7.074,4.831c1.79-0.524,6.19-3.028,10.059-5.765l1.509-1.065  l17.289,8.234l-0.067,2.061c-0.195,5.938,0.202,12.169,0.87,14.491c3.521,0.183,10.792,0.78,14.881,1.696  c0.964-1.97,2.171-7.046,2.782-11.932l0.385-3.073l20.856,2.231l0.543,2.121c1.157,4.519,2.862,9.896,3.93,12.071  c0.65-0.026,1.526-0.042,2.738-0.042c2.129,0,4.708,0.049,6.781,0.092c0.753,0.014,1.453,0.028,2.059,0.036  c0.647-2.309,1.201-8.019,1.256-13.469l0.018-1.628l12.603-8.76l1.837,1.467c3.821,3.052,9.073,6.313,11.104,6.516  c1.992-1.417,4.851-3.768,7.388-5.85c0.984-0.808,1.93-1.595,2.782-2.282c-1.29-2.258-5.799-7.116-10.572-11.269l-1.643-0.971  L228.951,193h2.196c3.754,0,8.002-0.643,11.24-0.919c-18.354-9.008-36.406-18.059-54.418-27.702  C186.128,167.677,183.88,170.655,181.216,173.778z" fill="url(#SVGID_4_)"/><linearGradient gradientUnits="userSpaceOnUse" id="SVGID_5_" x1="153.8589" x2="165.3497" y1="131.084" y2="113.848"><stop offset="0" style="stop-color:#FEEC71"/><stop offset="1" style="stop-color:#FFFFFF"/></linearGradient><path d="M112.455,24.218c1.438,2.387,3.518,6.583,5.189,10.568l1.578,3.766l4.084,0.1l14.476,0.354  l5.038,0.12l1.231-4.885c0.782-3.103,1.94-6.517,2.9-8.701c0.228,0.07,0.46,0.143,0.698,0.217c3.022,0.939,6.906,2.146,9.648,3.074  c0.221,2.371-0.006,6.871-0.598,10.754l-0.66,4.309l3.798,2.14l14.25,8.027l4.903,2.759l3.301-4.558  c1.527-2.109,3.413-4.359,4.858-5.855c0.168,0.124,0.34,0.251,0.516,0.381c3.408,2.516,8.222,6.067,11.143,8.259  c-0.432,2.278-1.913,6.475-3.572,9.971l-1.67,3.504l2.378,3.07l8.142,10.507l2.648,3.417l4.143-1.239  c2.638-0.789,7.542-1.995,10.57-2.219c0.354,0.558,0.752,1.187,1.185,1.869c2.001,3.151,5.704,8.985,7.649,12.246  c-1.023,1.263-2.783,3.039-4.385,4.371l-3.086,2.558l1.005,3.881l3.439,13.266l0.786,3.029l2.888,1.207  c0.038,0.015,3.9,1.634,8.167,3.836c6.259,3.234,8.342,5.104,8.921,5.718l0.036,0.157l0.122,0.224  c0.14,2.079-1.16,7.894-1.601,9.866c-0.05,0.218-0.096,0.285-0.14,0.483c-1.576,0.214-3.775,0.229-5.704,0.229H234v6.587v13.267  v3.125l2.697,1.893c4.299,3.272,8.913,7.437,10.6,9.616c-0.257,0.829-0.472,1.725-0.749,2.649c-0.495,1.655-1.272,3.84-1.909,5.604  c-2.769,0.432-8.324,0.26-13.492,0.26h-4.392l-1.522,4.627l-4.176,11.553l-1.508,4.212l3.283,2.922  c3.193,2.779,6.417,6.058,8.334,8.345c-0.157,0.131-0.316,0.275-0.477,0.408c-2.003,1.646-4.211,3.465-5.986,4.814  c-2.011-0.877-5.633-3.183-8.535-5.499l-3.674-2.937l-3.863,2.686l-9.335,6.488l-2.674,1.857l-0.032,3.258  c-0.036,3.625-0.325,7.667-0.696,10.323c-1.971-0.037-4.289-0.056-6.248-0.056c-0.229,0-0.447,0-0.655,0  c-0.889-2-2.053-6.149-2.959-9.683l-1.085-4.252l-4.352-0.471l-15.6-1.674l-6.157-0.658l-0.771,6.145  c-0.384,3.059-1.069,6.449-1.718,8.731c-3.293-0.523-7.217-0.889-10.166-1.1c-0.339-2.772-0.505-7.258-0.372-11.391l0.135-4.126  l-3.725-1.775l-13.758-6.552l-3.336-1.59l-3.017,2.135c-2.661,1.883-5.847,3.804-7.805,4.753c-1.799-1.275-3.813-2.596-5.78-3.883  c-1.439-0.944-3.253-2.131-4.438-2.973c-0.115-2.487,0.243-7.757,0.888-12.543l0.377-2.801l-1.839-2.146l-8.845-10.319l-2.346-2.737  l-3.549,0.634l-9.865,1.761c-2.742-3.813-5.451-7.688-6.923-9.947c1.073-1.661,3.244-4.285,5.321-6.366l2.561-2.561l-0.92-3.501  l-4.256-16.216l-0.928-3.531l-3.524-0.954c-4.511-1.22-9.306-2.821-11.852-3.916c-0.231-3.064-0.646-7.871-1.221-11.752  c1.722-0.434,3.924-0.877,5.92-1.162l5.604-0.79l-0.184-5.658l-0.66-20.306l-0.145-4.457l-4.25-1.349  c-3.337-1.06-7.038-2.533-9.068-3.572c-0.004-0.235-0.01-0.478-0.015-0.731c-0.038-1.92-0.096-4.824-0.094-7.262  c2.972,0.044,6.206,0.515,6.236,0.52l3.015,0.447l2.224-2.086l7.647-7.169l1.354-1.27l0.45-1.8l2.457-9.829l0.838-3.376  l-2.401-2.513c-1.523-1.594-3.133-3.654-4.07-5.141c1.395-1.435,3.031-3.226,4.934-5.402c2.158,1.537,5.179,3.999,7.838,6.439  l3.157,2.904l3.859-1.87l10.811-5.236l4.436-2.149l-1.014-4.823c-0.887-4.218-1.609-8.773-1.902-11.746  C106.62,25.71,109.941,24.852,112.455,24.218 M162.188,184.357c8.159,0,15.409-2.781,20.966-8.047l0.244-0.231l0.218-0.255  c14.421-16.914,17.545-36.671,8.794-55.632c-9.703-21.024-33.713-38.129-53.524-38.129c-6.251,0-11.802,1.769-16.053,5.115  l-0.199,0.157l-0.186,0.172c-16.952,15.703-21.879,35.599-13.873,56.024C117.55,166.426,141.099,184.357,162.188,184.357   M114.434,17.27c-0.05,0-0.099,0.007-0.146,0.015c-2.622,0.573-13.627,3.467-15.862,4.035c-2.234,0.568,1.447,18.077,1.447,18.077  l-10.811,5.235c0,0-10.261-9.433-13.4-9.433c-0.296,0-0.528,0.085-0.684,0.266c-1.804,2.127-6.388,7.493-9.375,10.234  c-2.986,2.743,5.936,12.04,5.936,12.04l-2.458,9.828l-7.646,7.17c0,0-3.978-0.591-7.589-0.591c-2.912,0-5.585,0.386-5.731,1.773  c-0.329,3.109,0,12.613,0,15.232c0,2.618,13.428,6.879,13.428,6.879l0.66,20.308c0,0-13.043,1.842-12.061,4.429  c0.982,2.587,2.065,15.676,2.149,18.011c0.084,2.333,16.298,6.718,16.298,6.718l4.258,16.214c0,0-9.009,9.006-7.535,11.953  c1.474,2.949,10.809,15.724,10.809,15.724l13.758-2.457l8.845,10.32c0,0-2.046,15.146-0.162,17.031  c1.881,1.885,9.827,6.492,14.082,9.828c0.189,0.148,0.457,0.216,0.786,0.216c3.217,0,12.319-6.438,12.319-6.438l13.758,6.553  c0,0-0.576,17.609,2.618,17.689c3.194,0.08,13.22,0.883,16.709,1.965c0.114,0.036,0.228,0.052,0.338,0.052  c3.284,0,5.148-14.959,5.148-14.959l15.601,1.67c0,0,3.726,14.55,5.708,14.55c0.022,0,0.044-0.002,0.064-0.005  c0.656-0.108,2.148-0.145,3.95-0.145c3.603,0,8.444,0.145,10.3,0.145c2.784,0,2.949-16.607,2.949-16.607l9.335-6.485  c0,0,9.024,7.216,13.245,7.216c0.514,0,0.958-0.106,1.303-0.346c3.195-2.212,8.603-6.864,11.74-9.329  c3.136-2.464-11.546-15.231-11.546-15.231l4.176-11.302c0,0,16.706,0,18.158-2.104c1.451-2.103,3.559-9.945,4.826-13.621  c1.266-3.672-13.13-14.739-13.13-14.739v-13.267c0,0,10.92,0,11.165-2.457c0.246-2.458,3.618-14.005,1.897-17.197  c-1.228-5.161-20.67-13.267-20.67-13.267l-3.457-13.267c0,0,8.591-7.125,7.118-10.073c-1.475-2.949-9.818-15.861-11.552-18.671  c-0.421-0.681-1.604-0.94-3.155-0.94c-4.841,0-13.274,2.521-13.274,2.521l-8.143-10.507c0,0,6.633-13.923,3.44-16.38  c-3.193-2.457-14.085-10.457-16.542-12.282c-0.183-0.138-0.398-0.2-0.64-0.2c-2.994,0-10.005,9.7-10.005,9.7l-14.25-8.027  c0,0,2.373-15.478-1.313-16.867c-3.685-1.395-12.768-4.115-16.291-5.252c-0.126-0.041-0.251-0.058-0.378-0.058  c-3.416,0-7.016,14.339-7.016,14.339l-14.476-0.353C123.459,32.35,117.142,17.27,114.434,17.27L114.434,17.27z M162.188,178.052  c-31.524,0-74.432-49.813-35.454-85.918c3.278-2.582,7.473-3.766,12.152-3.766c28.279,0,74.082,43.313,39.931,83.364  C174.197,176.11,168.417,178.052,162.188,178.052L162.188,178.052z" fill="url(#SVGID_5_)"/></svg>